<mxfile host="app.diagrams.net" agent="Mozilla/5.0 (X11; Linux x86_64; rv:138.0) Gecko/20100101 Firefox/138.0" version="26.3.0">
  <diagram name="Seite-1" id="_BE2GRCPXfkcAuMfUSef">
    <mxGraphModel dx="2066" dy="1157" grid="1" gridSize="10" guides="1" tooltips="1" connect="1" arrows="1" fold="1" page="1" pageScale="1" pageWidth="827" pageHeight="1169" math="0" shadow="0">
      <root>
        <mxCell id="0" />
        <mxCell id="1" parent="0" />
        <mxCell id="Y28w9YVnGsoi671vJIPO-21" value="" style="rounded=0;whiteSpace=wrap;html=1;fillColor=none;dashed=1;" vertex="1" parent="1">
          <mxGeometry x="480" y="696" width="420" height="114" as="geometry" />
        </mxCell>
        <mxCell id="Y28w9YVnGsoi671vJIPO-1" value="" style="shape=umlLifeline;perimeter=lifelinePerimeter;whiteSpace=wrap;html=1;container=1;dropTarget=0;collapsible=0;recursiveResize=0;outlineConnect=0;portConstraint=eastwest;newEdgeStyle={&quot;curved&quot;:0,&quot;rounded&quot;:0};participant=umlActor;" vertex="1" parent="1">
          <mxGeometry x="550" y="450" width="20" height="470" as="geometry" />
        </mxCell>
        <mxCell id="Y28w9YVnGsoi671vJIPO-9" value="" style="html=1;points=[[0,0,0,0,5],[0,1,0,0,-5],[1,0,0,0,5],[1,1,0,0,-5]];perimeter=orthogonalPerimeter;outlineConnect=0;targetShapes=umlLifeline;portConstraint=eastwest;newEdgeStyle={&quot;curved&quot;:0,&quot;rounded&quot;:0};" vertex="1" parent="Y28w9YVnGsoi671vJIPO-1">
          <mxGeometry x="5" y="70" width="10" height="380" as="geometry" />
        </mxCell>
        <mxCell id="Y28w9YVnGsoi671vJIPO-3" value="DBProvider" style="shape=umlLifeline;perimeter=lifelinePerimeter;whiteSpace=wrap;html=1;container=1;dropTarget=0;collapsible=0;recursiveResize=0;outlineConnect=0;portConstraint=eastwest;newEdgeStyle={&quot;curved&quot;:0,&quot;rounded&quot;:0};" vertex="1" parent="1">
          <mxGeometry x="640" y="450" width="100" height="470" as="geometry" />
        </mxCell>
        <mxCell id="Y28w9YVnGsoi671vJIPO-11" value="" style="html=1;points=[[0,0,0,0,5],[0,1,0,0,-5],[1,0,0,0,5],[1,1,0,0,-5]];perimeter=orthogonalPerimeter;outlineConnect=0;targetShapes=umlLifeline;portConstraint=eastwest;newEdgeStyle={&quot;curved&quot;:0,&quot;rounded&quot;:0};" vertex="1" parent="Y28w9YVnGsoi671vJIPO-3">
          <mxGeometry x="45" y="70" width="10" height="380" as="geometry" />
        </mxCell>
        <mxCell id="Y28w9YVnGsoi671vJIPO-4" value="Agent" style="shape=umlLifeline;perimeter=lifelinePerimeter;whiteSpace=wrap;html=1;container=1;dropTarget=0;collapsible=0;recursiveResize=0;outlineConnect=0;portConstraint=eastwest;newEdgeStyle={&quot;curved&quot;:0,&quot;rounded&quot;:0};" vertex="1" parent="1">
          <mxGeometry x="800" y="450" width="100" height="470" as="geometry" />
        </mxCell>
        <mxCell id="Y28w9YVnGsoi671vJIPO-14" value="" style="html=1;points=[[0,0,0,0,5],[0,1,0,0,-5],[1,0,0,0,5],[1,1,0,0,-5]];perimeter=orthogonalPerimeter;outlineConnect=0;targetShapes=umlLifeline;portConstraint=eastwest;newEdgeStyle={&quot;curved&quot;:0,&quot;rounded&quot;:0};" vertex="1" parent="Y28w9YVnGsoi671vJIPO-4">
          <mxGeometry x="45" y="100" width="10" height="350" as="geometry" />
        </mxCell>
        <mxCell id="Y28w9YVnGsoi671vJIPO-19" value="" style="html=1;points=[[0,0,0,0,5],[0,1,0,0,-5],[1,0,0,0,5],[1,1,0,0,-5]];perimeter=orthogonalPerimeter;outlineConnect=0;targetShapes=umlLifeline;portConstraint=eastwest;newEdgeStyle={&quot;curved&quot;:0,&quot;rounded&quot;:0};" vertex="1" parent="Y28w9YVnGsoi671vJIPO-4">
          <mxGeometry x="40" y="190" width="10" height="210" as="geometry" />
        </mxCell>
        <mxCell id="Y28w9YVnGsoi671vJIPO-32" value="Execute Commands" style="html=1;verticalAlign=bottom;endArrow=block;curved=0;rounded=0;" edge="1" parent="Y28w9YVnGsoi671vJIPO-4" source="Y28w9YVnGsoi671vJIPO-19" target="Y28w9YVnGsoi671vJIPO-19">
          <mxGeometry x="0.2" y="-55" relative="1" as="geometry">
            <mxPoint x="-70" y="356" as="sourcePoint" />
            <mxPoint x="38" y="312" as="targetPoint" />
            <Array as="points">
              <mxPoint x="10" y="290" />
              <mxPoint x="10" y="310" />
            </Array>
            <mxPoint as="offset" />
          </mxGeometry>
        </mxCell>
        <mxCell id="Y28w9YVnGsoi671vJIPO-8" value="Adapter" style="shape=umlLifeline;perimeter=lifelinePerimeter;whiteSpace=wrap;html=1;container=1;dropTarget=0;collapsible=0;recursiveResize=0;outlineConnect=0;portConstraint=eastwest;newEdgeStyle={&quot;curved&quot;:0,&quot;rounded&quot;:0};" vertex="1" parent="1">
          <mxGeometry x="960" y="450" width="100" height="470" as="geometry" />
        </mxCell>
        <mxCell id="Y28w9YVnGsoi671vJIPO-16" value="" style="html=1;points=[[0,0,0,0,5],[0,1,0,0,-5],[1,0,0,0,5],[1,1,0,0,-5]];perimeter=orthogonalPerimeter;outlineConnect=0;targetShapes=umlLifeline;portConstraint=eastwest;newEdgeStyle={&quot;curved&quot;:0,&quot;rounded&quot;:0};" vertex="1" parent="Y28w9YVnGsoi671vJIPO-8">
          <mxGeometry x="45" y="130" width="10" height="320" as="geometry" />
        </mxCell>
        <mxCell id="Y28w9YVnGsoi671vJIPO-12" value="Create DBProvider" style="html=1;verticalAlign=bottom;endArrow=block;curved=0;rounded=0;entryX=0;entryY=0;entryDx=0;entryDy=5;exitX=1;exitY=0;exitDx=0;exitDy=5;exitPerimeter=0;entryPerimeter=0;" edge="1" target="Y28w9YVnGsoi671vJIPO-11" parent="1" source="Y28w9YVnGsoi671vJIPO-9">
          <mxGeometry relative="1" as="geometry">
            <mxPoint x="500" y="640" as="sourcePoint" />
            <mxPoint x="430" y="640" as="targetPoint" />
          </mxGeometry>
        </mxCell>
        <mxCell id="Y28w9YVnGsoi671vJIPO-15" value="Create Agent" style="html=1;verticalAlign=bottom;endArrow=block;curved=0;rounded=0;entryX=0;entryY=0;entryDx=0;entryDy=5;entryPerimeter=0;" edge="1" parent="1" source="Y28w9YVnGsoi671vJIPO-9" target="Y28w9YVnGsoi671vJIPO-14">
          <mxGeometry relative="1" as="geometry">
            <mxPoint x="575" y="535" as="sourcePoint" />
            <mxPoint x="695" y="535" as="targetPoint" />
          </mxGeometry>
        </mxCell>
        <mxCell id="Y28w9YVnGsoi671vJIPO-17" value="Create Adapter" style="html=1;verticalAlign=bottom;endArrow=block;curved=0;rounded=0;entryX=0;entryY=0;entryDx=0;entryDy=5;entryPerimeter=0;" edge="1" parent="1" source="Y28w9YVnGsoi671vJIPO-9" target="Y28w9YVnGsoi671vJIPO-16">
          <mxGeometry relative="1" as="geometry">
            <mxPoint x="575" y="565" as="sourcePoint" />
            <mxPoint x="855" y="565" as="targetPoint" />
          </mxGeometry>
        </mxCell>
        <mxCell id="Y28w9YVnGsoi671vJIPO-18" value="Register Commands" style="html=1;verticalAlign=bottom;endArrow=block;curved=0;rounded=0;" edge="1" parent="1" source="Y28w9YVnGsoi671vJIPO-16">
          <mxGeometry relative="1" as="geometry">
            <mxPoint x="575" y="595" as="sourcePoint" />
            <mxPoint x="855" y="616" as="targetPoint" />
          </mxGeometry>
        </mxCell>
        <mxCell id="Y28w9YVnGsoi671vJIPO-20" value="Create Chat" style="html=1;verticalAlign=bottom;endArrow=block;curved=0;rounded=0;entryX=0;entryY=0;entryDx=0;entryDy=5;entryPerimeter=0;" edge="1" parent="1" source="Y28w9YVnGsoi671vJIPO-9" target="Y28w9YVnGsoi671vJIPO-19">
          <mxGeometry relative="1" as="geometry">
            <mxPoint x="575" y="595" as="sourcePoint" />
            <mxPoint x="1015" y="595" as="targetPoint" />
          </mxGeometry>
        </mxCell>
        <mxCell id="Y28w9YVnGsoi671vJIPO-22" value="Loop" style="text;align=center;fontStyle=1;verticalAlign=middle;spacingLeft=3;spacingRight=3;strokeColor=none;rotatable=0;points=[[0,0.5],[1,0.5]];portConstraint=eastwest;html=1;" vertex="1" parent="1">
          <mxGeometry x="480" y="696" width="70" height="26" as="geometry" />
        </mxCell>
        <mxCell id="Y28w9YVnGsoi671vJIPO-24" value="Get Chat Model" style="html=1;verticalAlign=bottom;endArrow=block;curved=0;rounded=0;" edge="1" parent="1" target="Y28w9YVnGsoi671vJIPO-11">
          <mxGeometry relative="1" as="geometry">
            <mxPoint x="837" y="668" as="sourcePoint" />
            <mxPoint x="839" y="695" as="targetPoint" />
          </mxGeometry>
        </mxCell>
        <mxCell id="Y28w9YVnGsoi671vJIPO-27" value="" style="html=1;verticalAlign=bottom;endArrow=open;dashed=1;endSize=8;curved=0;rounded=0;" edge="1" source="Y28w9YVnGsoi671vJIPO-11" parent="1">
          <mxGeometry x="0.0378" y="-15" relative="1" as="geometry">
            <mxPoint x="837" y="679" as="targetPoint" />
            <mxPoint as="offset" />
          </mxGeometry>
        </mxCell>
        <mxCell id="Y28w9YVnGsoi671vJIPO-28" value="Ask Question" style="html=1;verticalAlign=bottom;endArrow=block;curved=0;rounded=0;" edge="1" parent="1" source="Y28w9YVnGsoi671vJIPO-9">
          <mxGeometry relative="1" as="geometry">
            <mxPoint x="575" y="655" as="sourcePoint" />
            <mxPoint x="839" y="721" as="targetPoint" />
          </mxGeometry>
        </mxCell>
        <mxCell id="Y28w9YVnGsoi671vJIPO-33" value="" style="html=1;verticalAlign=bottom;endArrow=open;dashed=1;endSize=8;curved=0;rounded=0;" edge="1" parent="1" target="Y28w9YVnGsoi671vJIPO-9">
          <mxGeometry x="0.0378" y="-15" relative="1" as="geometry">
            <mxPoint x="847" y="689" as="targetPoint" />
            <mxPoint x="839" y="784" as="sourcePoint" />
            <mxPoint as="offset" />
          </mxGeometry>
        </mxCell>
        <mxCell id="Y28w9YVnGsoi671vJIPO-34" value="Update Chat Model" style="html=1;verticalAlign=bottom;endArrow=block;curved=0;rounded=0;" edge="1" parent="1" target="Y28w9YVnGsoi671vJIPO-11">
          <mxGeometry relative="1" as="geometry">
            <mxPoint x="840" y="840" as="sourcePoint" />
            <mxPoint x="705" y="678" as="targetPoint" />
          </mxGeometry>
        </mxCell>
      </root>
    </mxGraphModel>
  </diagram>
</mxfile>
